<?xml version="1.0" encoding="UTF-8"?>
<svg width="144px" height="42px" viewBox="0 0 144 42" version="1.1" xmlns="http://www.w3.org/2000/svg" xmlns:xlink="http://www.w3.org/1999/xlink">
    <!-- Generator: Sketch 41.2 (35397) - http://www.bohemiancoding.com/sketch -->
    <title>complete-logo</title>
    <desc>Created with Sketch.</desc>
    <defs></defs>
    <g id="Page-1" stroke="none" stroke-width="1" fill="none" fill-rule="evenodd">
        <g id="complete-logo" fill="#FFFFFF">
            <g id="tagline" transform="translate(9.675889, 32.918919)">
                <polygon id="the-t" points="1.99209486 5.33513514 1.99209486 0.737837838 0.398418972 0.737837838 0.398418972 0.283783784 4.04110672 0.283783784 4.04110672 0.737837838 2.44743083 0.737837838 2.44743083 5.33513514"></polygon>
                <polygon id="the-h" points="9.67588933 5.33513514 9.67588933 2.95135135 6.94387352 2.95135135 6.94387352 5.33513514 6.48853755 5.33513514 6.48853755 0.283783784 6.94387352 0.283783784 6.94387352 2.4972973 9.67588933 2.4972973 9.67588933 0.283783784 10.1312253 0.283783784 10.1312253 5.33513514"></polygon>
                <polygon id="the-e" points="16.1075099 5.33513514 13.1478261 5.33513514 13.1478261 0.283783784 16.1075099 0.283783784 16.1075099 0.737837838 13.6031621 0.737837838 13.6031621 2.55405405 15.9367589 2.55405405 15.9367589 2.95135135 13.6031621 2.95135135 13.6031621 4.88108108 16.1075099 4.88108108"></polygon>
                <polygon id="modern-m" points="22.0837945 5.33513514 22.0837945 0.283783784 22.5391304 0.283783784 24.3035573 4.42702703 24.3035573 4.42702703 26.0679842 0.283783784 26.5233202 0.283783784 26.5233202 5.33513514 26.1818182 5.33513514 26.1818182 1.36216216 26.1818182 1.36216216 24.5881423 4.93783784 24.1328063 4.93783784 22.5391304 1.36216216 22.5391304 1.36216216 22.5391304 5.33513514 22.0837945 5.33513514"></polygon>
                <path d="M29.36917,2.44054054 C29.36917,1.02162162 30.1090909,0.227027027 31.3612648,0.227027027 C32.6134387,0.227027027 33.3533597,1.07837838 33.3533597,2.4972973 L33.3533597,3.29189189 C33.3533597,4.65405405 32.6134387,5.50540541 31.3612648,5.50540541 C30.1090909,5.50540541 29.36917,4.71081081 29.36917,3.29189189 L29.36917,2.44054054 Z M29.8245059,3.29189189 C29.8245059,4.42702703 30.4505929,5.05135135 31.3043478,5.05135135 C32.2150198,5.05135135 32.7841897,4.42702703 32.7841897,3.29189189 L32.7841897,2.44054054 C32.7841897,1.30540541 32.1581028,0.624324324 31.3043478,0.624324324 C30.4505929,0.624324324 29.8245059,1.30540541 29.8245059,2.44054054 L29.8245059,3.29189189 Z" id="modern-o"></path>
                <path d="M37.6221344,0.340540541 C39.2158103,0.340540541 39.8418972,1.36216216 39.8418972,2.83783784 C39.8418972,4.31351351 39.2727273,5.33513514 37.6221344,5.33513514 L36.1422925,5.33513514 L36.1422925,0.283783784 L37.6221344,0.283783784 L37.6221344,0.340540541 Z M36.5976285,4.93783784 L37.5652174,4.93783784 C38.8173913,4.93783784 39.3296443,4.14324324 39.3296443,2.83783784 C39.3296443,1.53243243 38.8173913,0.737837838 37.5652174,0.737837838 L36.5407115,0.737837838 L36.5407115,4.93783784 L36.5976285,4.93783784 Z" id="modern-d"></path>
                <polygon id="modern-e" points="45.4766798 5.33513514 42.516996 5.33513514 42.516996 0.283783784 45.4766798 0.283783784 45.4766798 0.737837838 42.972332 0.737837838 42.972332 2.55405405 45.3059289 2.55405405 45.3059289 2.95135135 42.972332 2.95135135 42.972332 4.88108108 45.4766798 4.88108108"></polygon>
                <path d="M51.5667984,1.75945946 C51.5667984,2.55405405 51.1114625,3.00810811 50.5422925,3.17837838 L51.6237154,5.39189189 L51.0545455,5.39189189 L50.0300395,3.29189189 L48.6640316,3.29189189 L48.6640316,5.39189189 L48.2086957,5.39189189 L48.2086957,0.340540541 L49.9731225,0.340540541 C51.0545455,0.340540541 51.5667984,0.964864865 51.5667984,1.75945946 Z M49.9162055,2.83783784 C50.6561265,2.83783784 51.0545455,2.44054054 51.0545455,1.81621622 C51.0545455,1.13513514 50.5992095,0.737837838 49.9162055,0.737837838 L48.7209486,0.737837838 L48.7209486,2.83783784 L49.9162055,2.83783784 Z" id="modern-r"></path>
                <polygon id="modern-n" points="54.3557312 5.33513514 54.3557312 0.283783784 54.8110672 0.283783784 57.543083 4.48378378 57.543083 4.48378378 57.543083 0.283783784 57.998419 0.283783784 57.998419 5.33513514 57.543083 5.33513514 54.8110672 1.13513514 54.8110672 1.13513514 54.8110672 5.33513514"></polygon>
                <polygon id="mans-m" points="64.2592885 5.33513514 64.2592885 0.283783784 64.7146245 0.283783784 66.4790514 4.42702703 66.4790514 4.42702703 68.2434783 0.283783784 68.6988142 0.283783784 68.6988142 5.33513514 68.2434783 5.33513514 68.2434783 1.36216216 68.2434783 1.36216216 66.6498024 4.93783784 66.1944664 4.93783784 64.6007905 1.36216216 64.6007905 1.36216216 64.6007905 5.33513514 64.2592885 5.33513514"></polygon>
                <path d="M71.2600791,5.33513514 L73.0814229,0.283783784 L73.5367589,0.283783784 L75.3581028,5.33513514 L74.8458498,5.33513514 L74.2766798,3.74594595 L72.284585,3.74594595 L71.715415,5.33513514 L71.2600791,5.33513514 Z M73.2521739,0.908108108 L72.398419,3.34864865 L74.1059289,3.34864865 L73.2521739,0.908108108 L73.2521739,0.908108108 Z" id="mans-a"></path>
                <polygon id="mans-n" points="77.8055336 5.33513514 77.8055336 0.283783784 78.2608696 0.283783784 80.9928854 4.48378378 80.9928854 4.48378378 80.9928854 0.283783784 81.4482213 0.283783784 81.4482213 5.33513514 80.9928854 5.33513514 78.2608696 1.13513514 78.2608696 1.13513514 78.2608696 5.33513514"></polygon>
                <polygon id="mans-apostrophe" points="84.4079051 1.81621622 84.7494071 0.340540541 85.2616601 0.340540541 84.8063241 1.81621622"></polygon>
                <path d="M88.1644269,4.02972973 C88.2213439,4.54054054 88.6197628,5.05135135 89.5304348,5.05135135 C90.2703557,5.05135135 90.7826087,4.65405405 90.7826087,4.08648649 C90.7826087,3.57567568 90.4411067,3.34864865 89.8150198,3.17837838 L89.0181818,2.95135135 C88.3920949,2.78108108 87.8798419,2.38378378 87.8798419,1.64594595 C87.8798419,0.737837838 88.6197628,0.227027027 89.5873518,0.227027027 C90.4980237,0.227027027 91.2379447,0.737837838 91.2379447,1.58918919 L90.7826087,1.58918919 C90.7256917,1.07837838 90.3841897,0.681081081 89.5873518,0.681081081 C88.9043478,0.681081081 88.3920949,1.02162162 88.3920949,1.64594595 C88.3920949,2.1 88.6766798,2.38378378 89.1889328,2.4972973 L89.9857708,2.72432432 C90.7826087,2.95135135 91.2948617,3.29189189 91.2948617,4.08648649 C91.2948617,5.05135135 90.4980237,5.56216216 89.4735178,5.56216216 C88.1644269,5.56216216 87.7090909,4.76756757 87.7090909,4.14324324 L88.1644269,4.14324324 L88.1644269,4.02972973 Z" id="mans-s"></path>
                <path d="M97.1573123,0.340540541 L98.9217391,0.340540541 C99.7754941,0.340540541 100.344664,0.794594595 100.344664,1.58918919 C100.344664,2.27027027 99.9462451,2.61081081 99.4909091,2.72432432 L99.4909091,2.72432432 C100.173913,2.78108108 100.629249,3.23513514 100.629249,3.97297297 C100.629249,4.88108108 99.9462451,5.39189189 98.9217391,5.39189189 L97.1573123,5.39189189 L97.1573123,0.340540541 Z M97.6126482,2.55405405 L98.5802372,2.55405405 C99.3770751,2.55405405 99.8324111,2.27027027 99.8324111,1.64594595 C99.8324111,1.02162162 99.4339921,0.737837838 98.8079051,0.737837838 L97.5557312,0.737837838 L97.5557312,2.55405405 L97.6126482,2.55405405 Z M97.6126482,4.93783784 L98.6940711,4.93783784 C99.5478261,4.93783784 100.116996,4.71081081 100.116996,3.97297297 C100.116996,3.29189189 99.6047431,2.95135135 98.9217391,2.95135135 L97.6126482,2.95135135 L97.6126482,4.93783784 Z" id="boxers-b"></path>
                <path d="M103.133597,2.44054054 C103.133597,1.02162162 103.873518,0.227027027 105.125692,0.227027027 C106.377866,0.227027027 107.117787,1.07837838 107.117787,2.4972973 L107.117787,3.29189189 C107.117787,4.65405405 106.377866,5.50540541 105.125692,5.50540541 C103.930435,5.50540541 103.133597,4.71081081 103.133597,3.29189189 L103.133597,2.44054054 Z M103.588933,3.29189189 C103.588933,4.42702703 104.21502,5.05135135 105.068775,5.05135135 C105.979447,5.05135135 106.548617,4.42702703 106.548617,3.29189189 L106.548617,2.44054054 C106.548617,1.30540541 105.92253,0.624324324 105.068775,0.624324324 C104.21502,0.624324324 103.588933,1.30540541 103.588933,2.44054054 L103.588933,3.29189189 Z" id="boxers-o"></path>
                <polygon id="boxers-x" points="111.557312 2.83783784 113.264822 5.33513514 112.695652 5.33513514 111.272727 3.23513514 111.272727 3.23513514 109.849802 5.33513514 109.280632 5.33513514 110.988142 2.78108108 109.337549 0.283783784 109.906719 0.283783784 111.329644 2.38378378 111.329644 2.38378378 112.752569 0.283783784 113.321739 0.283783784"></polygon>
                <polygon id="boxers-e" points="118.61502 5.33513514 115.655336 5.33513514 115.655336 0.283783784 118.61502 0.283783784 118.61502 0.737837838 116.110672 0.737837838 116.110672 2.55405405 118.444269 2.55405405 118.444269 2.95135135 116.110672 2.95135135 116.110672 4.88108108 118.61502 4.88108108"></polygon>
                <path d="M124.705138,1.75945946 C124.705138,2.55405405 124.249802,3.00810811 123.680632,3.17837838 L124.762055,5.39189189 L124.192885,5.39189189 L123.168379,3.29189189 L121.802372,3.29189189 L121.802372,5.39189189 L121.347036,5.39189189 L121.347036,0.340540541 L123.111462,0.340540541 C124.192885,0.340540541 124.705138,0.964864865 124.705138,1.75945946 Z M123.054545,2.83783784 C123.794466,2.83783784 124.192885,2.44054054 124.192885,1.81621622 C124.192885,1.13513514 123.737549,0.737837838 123.054545,0.737837838 L121.859289,0.737837838 L121.859289,2.83783784 L123.054545,2.83783784 Z" id="boxers-r"></path>
                <path d="M127.607905,4.02972973 C127.664822,4.54054054 128.063241,5.05135135 128.973913,5.05135135 C129.713834,5.05135135 130.226087,4.65405405 130.226087,4.08648649 C130.226087,3.57567568 129.884585,3.34864865 129.258498,3.17837838 L128.46166,2.95135135 C127.835573,2.78108108 127.32332,2.38378378 127.32332,1.64594595 C127.32332,0.737837838 128.063241,0.227027027 129.03083,0.227027027 C129.941502,0.227027027 130.681423,0.737837838 130.681423,1.58918919 L130.226087,1.58918919 C130.16917,1.07837838 129.827668,0.681081081 129.03083,0.681081081 C128.347826,0.681081081 127.835573,1.02162162 127.835573,1.64594595 C127.835573,2.1 128.120158,2.38378378 128.632411,2.4972973 L129.429249,2.72432432 C130.226087,2.95135135 130.73834,3.29189189 130.73834,4.08648649 C130.73834,5.05135135 129.941502,5.56216216 128.916996,5.56216216 C127.607905,5.56216216 127.152569,4.76756757 127.152569,4.14324324 L127.607905,4.14324324 L127.607905,4.02972973 Z" id="boxers-s"></path>
            </g>
            <g id="prime">
                <path d="M139.44664,19.2972973 L143.658498,23.4972973 L141.609486,25.5405405 C140.186561,26.9594595 138.592885,28.0378378 136.771542,28.7756757 C134.950198,29.5135135 133.071937,29.9108108 131.079842,29.9108108 C129.087747,29.9108108 127.152569,29.5135135 125.388142,28.7756757 C123.566798,28.0378378 121.973123,26.9594595 120.550198,25.5405405 C119.070356,24.0648649 117.988933,22.4189189 117.305929,20.6027027 C116.622925,18.7864865 116.224506,16.9135135 116.224506,14.9837838 C116.224506,13.1108108 116.566008,11.2378378 117.305929,9.42162162 C117.988933,7.60540541 119.127273,5.95945946 120.550198,4.54054054 C122.03004,3.06486486 123.680632,1.98648649 125.501976,1.24864865 C127.32332,0.510810811 129.201581,0.17027027 131.136759,0.17027027 C133.01502,0.17027027 134.893281,0.510810811 136.771542,1.24864865 C138.592885,1.98648649 140.243478,3.06486486 141.72332,4.54054054 L143.772332,6.58378378 L127.209486,23.1 C128.916996,23.9513514 130.681423,24.2351351 132.559684,23.9513514 C134.437945,23.6675676 136.088538,22.8162162 137.511462,21.3972973 L139.44664,19.2972973 Z M124.648221,8.62702703 C122.883794,10.3864865 121.973123,12.5432432 121.973123,14.9837838 C121.973123,16.3459459 122.257708,17.6513514 122.883794,18.9 C123.396047,18.3891892 124.249802,17.5378378 125.331225,16.4594595 C126.412648,15.3810811 127.550988,14.2459459 128.803162,12.9972973 C129.998419,11.8054054 131.193676,10.6135135 132.332016,9.53513514 C133.470356,8.45675676 134.324111,7.54864865 134.950198,6.92432432 C133.242688,6.07297297 131.478261,5.78918919 129.6,6.07297297 C127.721739,6.35675676 126.071146,7.20810811 124.648221,8.62702703 Z" id="prime-e" transform="translate(129.998419, 15.040541) rotate(-360.000000) translate(-129.998419, -15.040541) "></path>
                <path d="M98.9786561,0 C101.084585,0 103.019763,0.397297297 104.78419,1.13513514 C106.605534,1.92972973 108.142292,2.95135135 109.5083,4.31351351 C110.874308,5.67567568 111.955731,7.20810811 112.752569,9.02432432 C113.549407,10.8405405 113.890909,12.7702703 113.890909,14.8135135 L113.890909,29.7405405 L107.971542,29.7405405 L107.971542,14.8702703 C107.971542,13.6216216 107.743874,12.4864865 107.288538,11.4081081 C106.833202,10.3297297 106.207115,9.36486486 105.35336,8.57027027 C104.556522,7.77567568 103.588933,7.09459459 102.450593,6.64054054 C101.36917,6.18648649 100.173913,5.95945946 98.9217391,5.95945946 C97.6695652,5.95945946 96.5312253,6.18648649 95.4498024,6.64054054 C94.3683794,7.09459459 93.4007905,7.71891892 92.6039526,8.57027027 C91.8071146,9.36486486 91.1241107,10.3297297 90.6687747,11.4081081 C90.2134387,12.4864865 89.9857708,13.6783784 89.9857708,14.8702703 L89.9857708,29.7972973 L84.0664032,29.7972973 L84.0664032,14.8702703 C84.0664032,13.6216216 83.8387352,12.4864865 83.3833992,11.4081081 C82.9280632,10.3297297 82.3019763,9.36486486 81.4482213,8.57027027 C80.6513834,7.77567568 79.6837945,7.09459459 78.5454545,6.64054054 C77.4640316,6.18648649 76.2687747,5.95945946 75.0166008,5.95945946 C73.7644269,5.95945946 72.626087,6.18648649 71.544664,6.64054054 C70.4632411,7.09459459 69.4956522,7.71891892 68.6988142,8.57027027 C67.9019763,9.36486486 67.2189723,10.3297297 66.7636364,11.4081081 C66.3083004,12.4864865 66.0806324,13.6783784 66.0806324,14.8702703 L66.0806324,29.7972973 L60.1612648,29.7972973 L60.1612648,14.8702703 C60.1612648,12.7702703 60.5596838,10.8405405 61.2996047,9.08108108 C62.0964427,7.26486486 63.1209486,5.73243243 64.4869565,4.37027027 C65.8529644,3.00810811 67.4466403,1.98648649 69.2110672,1.19189189 C71.0324111,0.397297297 72.9675889,0.0567567568 75.0166008,0.0567567568 C77.5209486,0.0567567568 79.7976285,0.624324324 81.8466403,1.7027027 C83.8956522,2.78108108 85.6031621,4.25675676 87.026087,6.12972973 C88.3920949,4.25675676 90.0996047,2.78108108 92.2055336,1.7027027 C94.3114625,0.567567568 96.5312253,0 98.9786561,0 Z" id="prime-m"></path>
                <polygon id="prime-i" points="57.770751 0 57.770751 29.7405405 51.9083004 29.7405405 51.9083004 0"></polygon>
                <path d="M49.7454545,0 L49.7454545,5.9027027 L46.7288538,5.9027027 C45.4766798,5.9027027 44.3383399,6.12972973 43.256917,6.58378378 C42.1754941,7.03783784 41.2079051,7.66216216 40.4110672,8.51351351 C39.6142292,9.30810811 38.9312253,10.272973 38.4758893,11.3513514 C38.0205534,12.4297297 37.7928854,13.6216216 37.7928854,14.8135135 L37.7928854,29.7405405 L31.7596838,29.7405405 L31.7596838,14.8702703 C31.7596838,12.7702703 32.1581028,10.8405405 32.8980237,9.08108108 C33.6948617,7.26486486 34.7762846,5.73243243 36.1422925,4.37027027 C37.5652174,3.00810811 39.1588933,1.92972973 40.9233202,1.13513514 C42.744664,0.340540541 44.6798419,0 46.7288538,0 L49.7454545,0 Z" id="prime-r"></path>
                <path d="M14.912253,0.113513514 C17.0181818,0.113513514 18.9533597,0.510810811 20.7177866,1.24864865 C22.4822134,1.98648649 24.0758893,3.06486486 25.4988142,4.42702703 C26.8648221,5.78918919 27.9462451,7.32162162 28.743083,9.13783784 C29.5399209,10.9540541 29.8814229,12.8837838 29.8814229,14.927027 C29.8814229,16.9702703 29.483004,18.9 28.743083,20.7162162 C27.9462451,22.5324324 26.8648221,24.1216216 25.4988142,25.4837838 C24.1328063,26.8459459 22.5391304,27.9243243 20.7177866,28.7189189 C18.8964427,29.5135135 16.9612648,29.8540541 14.912253,29.8540541 L5.91936759,29.8540541 L5.91936759,41.772973 L0,41.772973 L0,14.9837838 C0,12.8837838 0.398418972,10.9540541 1.13833992,9.19459459 C1.93517787,7.37837838 2.95968379,5.84594595 4.3256917,4.48378378 C5.6916996,3.12162162 7.28537549,2.04324324 9.10671937,1.30540541 C10.9280632,0.510810811 12.8632411,0.113513514 14.912253,0.113513514 Z M18.4411067,23.327027 C19.5225296,22.872973 20.4901186,22.2486486 21.3438735,21.3972973 C22.1407115,20.6027027 22.8237154,19.6378378 23.2790514,18.5027027 C23.7343874,17.4243243 23.9620553,16.2324324 23.9620553,14.9837838 C23.9620553,13.7351351 23.7343874,12.6 23.2790514,11.5216216 C22.8237154,10.4432432 22.1976285,9.47837838 21.3438735,8.68378378 C20.5470356,7.88918919 19.5794466,7.20810811 18.4411067,6.75405405 C17.3596838,6.3 16.1644269,6.07297297 14.912253,6.07297297 C13.6600791,6.07297297 12.4648221,6.24324324 11.3833992,6.75405405 C10.3019763,7.20810811 9.33438735,7.83243243 8.53754941,8.68378378 C7.74071146,9.47837838 7.05770751,10.4432432 6.60237154,11.5216216 C6.14703557,12.6 5.91936759,13.7918919 5.91936759,14.9837838 L5.91936759,24.0081081 L14.912253,24.0081081 C16.1075099,24.0081081 17.3027668,23.7810811 18.4411067,23.327027 Z" id="prime-p"></path>
            </g>
        </g>
    </g>
</svg>